# xmcd CD database file
#
# Track frame offsets:
#	183
#	10700
#	20550
#	30758
#	43490
#	54570
#	63963
#	76280
#	88465
#	99490
#	110845
#	121245
#	130848
#
# Disc length: 1901 seconds
#
# Revision: 1
# Processed by: cddbd v1.5.2PL0 Copyright (c) Steve Scherf et al.
# Submitted via: CDex 1.79
#
DISCID=a7076b0d
DTITLE=The Beatles - 1962-1966 [2CD] - CD2
DYEAR=1973
DGENRE=Beat
TTITLE0=Help!
TTITLE1=You've Got To Hide Your Love Away
TTITLE2=We Can Work It Out
TTITLE3=Day Tripper
TTITLE4=Drive My Car
TTITLE5=Norwegian Wood (This Bird Has Flown)
TTITLE6=Nowhere Man
TTITLE7=Michelle
TTITLE8=In My Life
TTITLE9=Girl
TTITLE10=Paperback Writer
TTITLE11=Eleanor Rigby
TTITLE12=Yellow Submarine
EXTD=YEAR: 1973
EXTT0=
EXTT1=
EXTT2=
EXTT3=
EXTT4=
EXTT5=
EXTT6=
EXTT7=
EXTT8=
EXTT9=
EXTT10=
EXTT11=
EXTT12=
PLAYORDER=
